<?xml version="1.0" encoding="utf-8"?>
<!-- Generator: Adobe Illustrator 16.0.4, SVG Export Plug-In . SVG Version: 6.00 Build 0)  -->
<!DOCTYPE svg PUBLIC "-//W3C//DTD SVG 1.1//EN" "http://www.w3.org/Graphics/SVG/1.1/DTD/svg11.dtd">
<svg version="1.1" id="Layer_1" xmlns="http://www.w3.org/2000/svg" xmlns:xlink="http://www.w3.org/1999/xlink" x="0px" y="0px"
	 width="800px" height="200px" viewBox="0 0 800 200" enable-background="new 0 0 800 200" xml:space="preserve">
<text transform="matrix(0.4857 0 0 1 118.728 119.0586)" fill="#011111" stroke="#58FF26" stroke-width="2" stroke-miterlimit="10" font-family="'DodgerLaser'" font-size="124.2235">TAKE FLIGHT</text>
<path fill="#566473" stroke="#58FF26" stroke-miterlimit="10" d="M21.847,78.293c2.361,2.82,4.715,5.649,7.071,8.475h85.789v-8.475
	H21.847z"/>
<path fill="#011111" stroke="#58FF26" stroke-width="2" stroke-miterlimit="10" d="M422.189,145.719l-15.108-2.644l-6.753-16.477
	c-0.005,0.007-0.01,0.014-0.015,0.021l-6.746,16.456l-15.108,2.644l10.933,12.831l-2.582,18.119l13.513-8.554l13.514,8.554
	l-2.582-18.119L422.189,145.719z"/>
<path fill="#011111" stroke="#58FF26" stroke-width="2" stroke-miterlimit="10" d="M1.876,53.976c2.18,2.759,4.08,5.304,4.766,6.216
	c0.242,0.307,0.353,0.453,0.281,0.368c2.918,3.444,5.818,6.91,8.725,10.368h99.058V53.976H1.876z"/>
<path fill="#011111" stroke="#58FF26" stroke-width="2" stroke-miterlimit="10" d="M375.668,135.233
	c2.292-2.761,4.597-5.509,6.908-8.249H62.187c2.528,3.084,5.064,6.158,7.583,9.253c-0.011-0.013,0.016,0.024,0.062,0.091
	c0.526,0.695,3.173,4.108,5.917,7.607H368.5C370.881,141.023,373.269,138.123,375.668,135.233z"/>
<path fill="#566473" stroke="#58FF26" stroke-miterlimit="10" d="M48.692,110.583c0.022,0.027,0.045,0.055,0.067,0.082
	c2.301,2.782,4.603,5.564,6.899,8.353c0.011,0.014,0.022,0.027,0.033,0.041h59.014v-8.476H48.692z"/>
<path fill="#BFBFBF" stroke="#58FF26" stroke-miterlimit="10" d="M35.497,94.665c0.992,1.193,1.989,2.382,2.98,3.577
	c1.354,1.63,2.702,3.267,4.055,4.899h72.174v-8.476H35.497z"/>
<path fill="#566473" stroke="#58FF26" stroke-miterlimit="10" d="M778.211,78.293h-92.223v8.475h85.154
	C773.5,83.942,775.852,81.113,778.211,78.293z"/>
<path fill="#011111" stroke="#58FF26" stroke-width="2" stroke-miterlimit="10" d="M793.39,60.257
	c-0.107,0.126,2.19-2.892,4.918-6.281H685.988v16.952h98.421C787.401,67.369,790.388,63.801,793.39,60.257z"/>
<path fill="#011111" stroke="#58FF26" stroke-width="2" stroke-miterlimit="10" d="M737.878,126.984H418.06
	c2.311,2.74,4.616,5.49,6.91,8.252c2.397,2.888,4.787,5.789,7.165,8.699h292.368c3.236-4.203,6.365-8.4,6.039-8
	C732.979,132.941,735.434,129.968,737.878,126.984z"/>
<path fill="#566473" stroke="#58FF26" stroke-miterlimit="10" d="M751.37,110.583h-65.382v8.476h58.385
	C746.702,116.229,749.036,113.406,751.37,110.583z"/>
<path fill="#BFBFBF" stroke="#58FF26" stroke-miterlimit="10" d="M761.836,97.939c0.908-1.093,1.82-2.181,2.728-3.274h-78.575v8.476
	h71.543C758.968,101.408,760.398,99.669,761.836,97.939z"/>
</svg>
